<?xml version="1.0" encoding="utf-8"?>
<!-- Generator: Adobe Illustrator 16.0.2, SVG Export Plug-In . SVG Version: 6.00 Build 0)  -->
<!DOCTYPE svg PUBLIC "-//W3C//DTD SVG 1.1//EN" "http://www.w3.org/Graphics/SVG/1.1/DTD/svg11.dtd">
<svg version="1.1" id="Layer_1" xmlns="http://www.w3.org/2000/svg" xmlns:xlink="http://www.w3.org/1999/xlink" x="0px" y="0px"
	 width="40px" height="40px" viewBox="0 0 40 40" enable-background="new 0 0 40 40" xml:space="preserve">
<symbol  id="home" viewBox="0 -40 40 40">
	<g id="Layer_3_1_">
		<path fill-rule="evenodd" clip-rule="evenodd" fill="#FFFFFF" d="M40-1.05V-39c0-0.667-0.35-1-1.05-1H1c-0.667,0-1,0.333-1,1
			v37.95C0-0.35,0.333,0,1,0h37.95C39.65,0,40-0.35,40-1.05z"/>
	</g>
	<g>
		<g>
			<path fill-rule="evenodd" clip-rule="evenodd" fill="#626262" d="M29.15-19c0.133-0.133,0.233-0.3,0.3-0.5
				c0.033-0.2,0.017-0.383-0.05-0.55c-0.067-0.2-0.184-0.35-0.35-0.45c-0.167-0.133-0.35-0.2-0.55-0.2h-1.35v-7.75
				c0-0.133-0.067-0.267-0.2-0.4c-0.1-0.1-0.233-0.15-0.4-0.15H21.9c-0.133,0-0.25,0.05-0.35,0.15c-0.133,0.133-0.2,0.267-0.2,0.4
				v4.7h-2.7v-4.7c0-0.133-0.067-0.267-0.2-0.4c-0.1-0.1-0.217-0.15-0.35-0.15h-4.65c-0.167,0-0.3,0.05-0.4,0.15
				c-0.1,0.133-0.15,0.267-0.15,0.4v7.75h-1.4c-0.2,0-0.383,0.067-0.55,0.2c-0.133,0.1-0.25,0.25-0.35,0.45
				c-0.066,0.167-0.066,0.35,0,0.55c0.034,0.2,0.117,0.367,0.25,0.5l8.5,7.75C19.55-11.083,19.767-11,20-11
				c0.233,0,0.45-0.083,0.65-0.25L29.15-19z M27-12.1c0.133,0,0.267-0.05,0.4-0.15c0.1-0.133,0.15-0.267,0.15-0.4V-16l-4.3,3.9H27z"
				/>
		</g>
	</g>
</symbol>
<use xlink:href="#home"  width="40" height="40" y="-40" transform="matrix(1 0 0 -1 0.3501 0)" overflow="visible"/>
</svg>
