<?xml version="1.0" encoding="utf-8"?>
<!-- Generator: Adobe Illustrator 16.0.2, SVG Export Plug-In . SVG Version: 6.00 Build 0)  -->
<!DOCTYPE svg PUBLIC "-//W3C//DTD SVG 1.1//EN" "http://www.w3.org/Graphics/SVG/1.1/DTD/svg11.dtd">
<svg version="1.1" id="Layer_1" xmlns="http://www.w3.org/2000/svg" xmlns:xlink="http://www.w3.org/1999/xlink" x="0px" y="0px"
	 width="40px" height="40px" viewBox="0 0 40 40" enable-background="new 0 0 40 40" xml:space="preserve">
<symbol  id="login" viewBox="0 -40 40 40">
	<g id="Layer_3_1_">
		<path fill-rule="evenodd" clip-rule="evenodd" fill="#FFFFFF" d="M40-1.05V-39c0-0.667-0.35-1-1.05-1H1c-0.667,0-1,0.333-1,1
			v37.95C0-0.35,0.333,0,1,0h37.95C39.65,0,40-0.35,40-1.05z"/>
	</g>
	<g>
		<path fill-rule="evenodd" clip-rule="evenodd" fill="#626262" d="M14.9-12.15c0.367,0.367,0.783,0.65,1.25,0.85
			c0.5,0.2,1.017,0.3,1.55,0.3s1.033-0.1,1.5-0.3c0.467-0.2,0.883-0.483,1.25-0.85c0.367-0.333,0.65-0.733,0.85-1.2
			c0.2-0.5,0.3-1.017,0.3-1.55s-0.1-1.033-0.3-1.5s-0.483-0.883-0.85-1.25s-0.783-0.65-1.25-0.85s-0.967-0.3-1.5-0.3
			s-1.05,0.1-1.55,0.3c-0.467,0.2-0.883,0.483-1.25,0.85c-0.333,0.367-0.6,0.783-0.8,1.25c-0.233,0.467-0.35,0.967-0.35,1.5
			s0.117,1.05,0.35,1.55C14.3-12.883,14.566-12.483,14.9-12.15z M25.1-22.35v-1.15h1.55v1.15c0,0.233-0.067,0.434-0.2,0.6
			c-0.167,0.133-0.35,0.2-0.55,0.2c-0.233,0-0.417-0.067-0.55-0.2C25.183-21.917,25.1-22.117,25.1-22.35z M22.35-24.85
			c0,0.367,0.133,0.684,0.4,0.95c0.267,0.267,0.6,0.4,1,0.4h0.2v1.15c0,0.567,0.184,1.033,0.55,1.4c0.4,0.4,0.867,0.6,1.4,0.6
			s0.983-0.2,1.35-0.6c0.4-0.367,0.6-0.833,0.6-1.4v-1.15h0.2c0.367,0,0.683-0.133,0.95-0.4c0.267-0.267,0.4-0.583,0.4-0.95v-2.75
			c0-0.4-0.133-0.733-0.4-1c-0.267-0.267-0.583-0.4-0.95-0.4h-4.3c-0.4,0-0.733,0.133-1,0.4c-0.267,0.267-0.4,0.6-0.4,1V-24.85z
			 M21-20.35c0.367,0,0.733-0.066,1.1-0.2c0.333-0.1,0.65-0.25,0.95-0.45c-0.2-0.433-0.3-0.883-0.3-1.35v-0.15
			c-0.467-0.2-0.833-0.517-1.1-0.95c-0.3-0.433-0.45-0.9-0.45-1.4v-2.55h-9.95c-0.167,0-0.317,0.05-0.45,0.15
			c-0.1,0.133-0.15,0.267-0.15,0.4v2.75c0,0.5,0.1,0.983,0.3,1.45c0.167,0.433,0.434,0.833,0.8,1.2c0.333,0.333,0.716,0.6,1.15,0.8
			c0.467,0.2,0.95,0.3,1.45,0.3H21z"/>
	</g>
</symbol>
<use xlink:href="#login"  width="40" height="40" y="-40" transform="matrix(1 0 0 -1 0.3501 0.2998)" overflow="visible"/>
</svg>
