<?xml version="1.0" encoding="utf-8"?>
<!-- Generator: Adobe Illustrator 16.0.2, SVG Export Plug-In . SVG Version: 6.00 Build 0)  -->
<!DOCTYPE svg PUBLIC "-//W3C//DTD SVG 1.1//EN" "http://www.w3.org/Graphics/SVG/1.1/DTD/svg11.dtd">
<svg version="1.1" id="Layer_1" xmlns="http://www.w3.org/2000/svg" xmlns:xlink="http://www.w3.org/1999/xlink" x="0px" y="0px"
	 width="40px" height="40px" viewBox="0 0 40 40" enable-background="new 0 0 40 40" xml:space="preserve">
<symbol  id="map" viewBox="0 -40 40 40">
	<g id="Layer_3_1_">
		<path fill-rule="evenodd" clip-rule="evenodd" fill="#FFFFFF" d="M0-39v37.95C0-0.35,0.333,0,1,0h37.95C39.65,0,40-0.35,40-1.05
			V-39c0-0.667-0.35-1-1.05-1H1C0.333-40,0-39.667,0-39z"/>
	</g>
	<g>
		<path fill-rule="evenodd" clip-rule="evenodd" fill="#626262" d="M20-19.149c0.733,0,1.333,0.233,1.8,0.7
			c0.5,0.5,0.75,1.1,0.75,1.8c0,0.7-0.25,1.3-0.75,1.8c-0.467,0.5-1.067,0.75-1.8,0.75c-0.7,0-1.284-0.25-1.75-0.75
			c-0.5-0.5-0.75-1.1-0.75-1.8c0-0.7,0.25-1.3,0.75-1.8C18.716-18.917,19.3-19.149,20-19.149z M19.9-11h0.3
			c2.267-0.067,3.983-1.1,5.15-3.1c1.167-2.067,1.184-4.117,0.05-6.15l-4.4-8.2C20.733-28.816,20.4-29,20-29
			c-0.434,0-0.733,0.183-0.9,0.55l-4.5,8.2c-1.1,2.1-1.05,4.15,0.15,6.15C15.883-12.1,17.6-11.066,19.9-11z"/>
	</g>
</symbol>
<use xlink:href="#map"  width="40" height="40" y="-40" transform="matrix(1 0 0 -1 0.3501 0)" overflow="visible"/>
</svg>
